<svg xmlns="http://www.w3.org/2000/svg" viewBox="0 0 200 200" fill="none">
  <defs>
    <linearGradient id="bgC" x1="0%" y1="0%" x2="100%" y2="100%">
      <stop offset="0%" stop-color="#f7e6d8"></stop>
      <stop offset="50%" stop-color="#e4a3b0"></stop>
      <stop offset="100%" stop-color="#9a7bbb"></stop>
    </linearGradient>
    <linearGradient id="silhouette" x1="0%" y1="0%" x2="0%" y2="100%">
      <stop offset="0%" stop-color="#1a1118"></stop>
      <stop offset="100%" stop-color="#3d2f3a"></stop>
    </linearGradient>
    <linearGradient id="rimLight" x1="0%" y1="0%" x2="100%" y2="0%">
      <stop offset="0%" stop-color="#c9a84c" stop-opacity="0"></stop>
      <stop offset="100%" stop-color="#c9a84c" stop-opacity="0.85"></stop>
    </linearGradient>
  </defs>

  
  <circle cx="100" cy="100" r="100" fill="url(#bgC)"></circle>

  
  <g opacity="0.45" fill="#fdfcf9">
    <circle cx="155" cy="40" r="1.4"></circle>
    <circle cx="40" cy="55" r="1.2"></circle>
    <circle cx="170" cy="100" r="1"></circle>
    <circle cx="35" cy="135" r="1.3"></circle>
    <circle cx="155" cy="155" r="1.1"></circle>
  </g>

  
  <path d="&#xA;    M 75 200&#xA;    L 75 165&#xA;    Q 75 140 90 130&#xA;    Q 95 125 95 115&#xA;    Q 78 110 75 95&#xA;    Q 70 80 78 65&#xA;    Q 82 50 95 45&#xA;    Q 100 40 110 38&#xA;    Q 125 36 135 50&#xA;    Q 142 60 138 75&#xA;    Q 152 78 155 70&#xA;    Q 158 65 162 70&#xA;    Q 160 88 145 92&#xA;    Q 142 100 138 108&#xA;    Q 132 116 125 120&#xA;    Q 122 130 130 140&#xA;    Q 145 155 145 200&#xA;    Z&#xA;  " fill="url(#silhouette)"></path>

  
  <ellipse cx="118" cy="40" rx="14" ry="11" fill="url(#silhouette)"></ellipse>

  
  <g transform="translate(132 38)">
    <circle cx="0" cy="0" r="3" fill="#c9a84c"></circle>
    <circle cx="0" cy="0" r="1.5" fill="#fdfcf9"></circle>
  </g>

  
  <path d="&#xA;    M 145 70&#xA;    Q 158 75 160 95&#xA;    Q 158 110 148 118&#xA;    Q 142 125 138 132&#xA;  " stroke="url(#rimLight)" stroke-width="2.5" fill="none" stroke-linecap="round"></path>

  
  <path d="M 78 82 Q 73 85 74 90 Q 75 92 78 92" stroke="#c98d80" stroke-width="0.8" fill="none" opacity="0.3"></path>

  
  <path d="M 76 100 Q 79 102 82 100" stroke="#a6695c" stroke-width="0.8" fill="none" opacity="0.4"></path>

  
  <line x1="80" y1="88" x2="78" y2="89" stroke="#1a1118" stroke-width="0.6" stroke-linecap="round" opacity="0.5"></line>

  
  <g transform="translate(45 90)" opacity="0.7">
    <circle cx="0" cy="0" r="2.5" fill="#e4a3b0"></circle>
    <circle cx="-1.8" cy="-1" r="1.8" fill="#f2c9d1"></circle>
    <circle cx="1.8" cy="-1" r="1.8" fill="#f2c9d1"></circle>
    <circle cx="0" cy="2" r="1.8" fill="#f2c9d1"></circle>
  </g>
  <g transform="translate(160 130)" opacity="0.6">
    <circle cx="0" cy="0" r="2" fill="#e4a3b0"></circle>
    <circle cx="-1.5" cy="-0.8" r="1.4" fill="#f2c9d1"></circle>
    <circle cx="1.5" cy="-0.8" r="1.4" fill="#f2c9d1"></circle>
  </g>
</svg>